<?xml version="1.0" standalone="no"?><!DOCTYPE svg PUBLIC "-//W3C//DTD SVG 1.1//EN" "http://www.w3.org/Graphics/SVG/1.1/DTD/svg11.dtd"><svg t="1725184386805" class="icon" viewBox="0 0 1024 1024" version="1.1" xmlns="http://www.w3.org/2000/svg" p-id="2699" xmlns:xlink="http://www.w3.org/1999/xlink" width="200" height="200"><path d="M493.614545 787.549091a11.636364 11.636364 0 0 1-9.076363-4.189091l-214.109091-261.818182a11.636364 11.636364 0 0 1 1.629091-16.290909 11.636364 11.636364 0 0 1 16.290909 1.629091L502.458182 768a11.636364 11.636364 0 0 1-1.629091 16.523636 11.869091 11.869091 0 0 1-7.214546 3.025455z" fill="#666666" p-id="2700"></path><path d="M279.272727 522.705455a10.705455 10.705455 0 0 1-7.447272-2.56 11.403636 11.403636 0 0 1-1.629091-16.29091l214.109091-261.818181a11.636364 11.636364 0 0 1 16.290909-1.629091 11.636364 11.636364 0 0 1 1.629091 16.523636l-214.109091 261.585455a11.403636 11.403636 0 0 1-8.843637 4.189091z" fill="#666666" p-id="2701"></path><path d="M818.269091 525.963636H279.272727a11.636364 11.636364 0 0 1-11.636363-11.636363 11.636364 11.636364 0 0 1 11.636363-11.636364h538.996364a11.636364 11.636364 0 0 1 11.636364 11.636364 11.869091 11.869091 0 0 1-11.636364 11.636363z" fill="#666666" p-id="2702"></path><path d="M512 23.272727A488.727273 488.727273 0 1 1 23.272727 512 488.727273 488.727273 0 0 1 512 23.272727m0-23.272727a512 512 0 1 0 512 512A512 512 0 0 0 512 0z" fill="#666666" p-id="2703"></path></svg>